<svg width="32" height="57" fill="none" xmlns="http://www.w3.org/2000/svg"><path d="M16.2 52.5a2.2 2.2 0 1 0 0-4.5 2.2 2.2 0 0 0 0 4.5Z" fill="#EE427B"/><path d="M16.2 55a4.8 4.8 0 1 0 0-9.6 4.8 4.8 0 0 0 0 9.7Z" stroke="#042342" stroke-width="2.2"/><path d="M6.6 20c-.6-1.3-1-2.7-1-4.2 0-5.8 4.8-10.5 10.6-10.5S26.7 10 26.7 15.8c0 5.7-4.7 10.4-10.5 10.4v9.4" stroke="#EEA305" stroke-width="3" stroke-linecap="round" stroke-linejoin="round"/><path d="M16.2 18.5a.9.9 0 1 0 0 1.7v-1.7ZM1.7 15.9A.9.9 0 1 0 0 16h1.7Zm-1.7.2a.9.9 0 0 0 1.7 0H0Zm21 14.3-.2-.8c-.4.1-.6.4-.6.8h.8Zm-8.8-4a.9.9 0 0 0-1.7 0h1.7ZM18.7 16c0 1.4-1.1 2.6-2.5 2.6v1.7c2.3 0 4.2-2 4.2-4.3h-1.7Zm-5 .2c.2-.8.5-1.5 1-2a2 2 0 0 1 1.5-.7v-1.7c-1.2 0-2.2.5-2.9 1.2-.6.8-1 1.8-1.3 2.8l1.7.4Zm2.5-2.7c1.4 0 2.5 1.1 2.5 2.5h1.7c0-2.3-1.9-4.2-4.2-4.2v1.7ZM12 15.7c-.7 2.5-1.4 4.3-2.4 5.4a4 4 0 0 1-3.3 1.7v1.7c2 0 3.5-.8 4.7-2.3a16 16 0 0 0 2.7-6l-1.7-.5Zm-5.7 7C5 22.8 3.9 22.2 3 21a9 9 0 0 1-1.4-5H0c0 2.3.6 4.4 1.6 6 1.1 1.5 2.7 2.5 4.7 2.5v-1.7ZM1.7 16H0h1.7Zm0 .1H0h1.7Zm0 0C1.7 8 8.1 1.6 16 1.6V0A16 16 0 0 0 0 16h1.7ZM16 1.6c7.9 0 14.3 6.5 14.3 14.4H32A16 16 0 0 0 16 0v1.7Zm14.3 14.4c0 7-5 12-9.5 13.5l.5 1.6a16.1 16.1 0 0 0 10.7-15h-1.7ZM20.2 36a4 4 0 0 1-4 4v1.7c3.2 0 5.7-2.5 5.7-5.7h-1.7Zm-4 4a4 4 0 0 1-4-4h-1.7c0 3.2 2.5 5.7 5.7 5.7V40Zm-4-4v-9.4h-1.7v9.4h1.7Zm9.7 0v-5.5h-1.7V36h1.7Z" fill="#EE427B"/></svg>