<svg width="832" height="264" viewBox="0 0 832 264" fill="none" xmlns="http://www.w3.org/2000/svg">
    <path d="M29.8741 204.276C29.8741 211.059 31.485 216.4 34.7067 220.3C37.9285 224.115 42.3796 226.023 48.0601 226.023C50.5188 226.023 52.596 225.938 54.2917 225.768C56.0721 225.514 57.5135 225.26 58.6156 225.005V186.853C57.2591 185.92 55.4363 185.072 53.1471 184.309C50.9427 183.462 48.5688 183.038 46.0253 183.038C40.4296 183.038 36.3176 184.945 33.6893 188.761C31.1458 192.576 29.8741 197.748 29.8741 204.276ZM74.0038 235.688C70.9516 236.621 67.094 237.469 62.4309 238.232C57.8526 238.995 53.0199 239.376 47.9329 239.376C42.6764 239.376 37.9709 238.571 33.8165 236.96C29.6621 235.349 26.1012 233.06 23.1338 230.092C20.2512 227.04 18.0044 223.395 16.3935 219.155C14.8674 214.831 14.1044 209.999 14.1044 204.657C14.1044 199.401 14.7403 194.653 16.012 190.414C17.3686 186.09 19.3186 182.402 21.8621 179.35C24.4056 176.297 27.5002 173.966 31.1458 172.355C34.7915 170.659 38.9883 169.811 43.7362 169.811C46.9579 169.811 49.7982 170.193 52.2569 170.956C54.7156 171.719 56.8352 172.567 58.6156 173.5V141.579L74.0038 139.035V235.688ZM153.705 204.403C153.705 209.66 152.942 214.45 151.416 218.774C149.889 223.098 147.728 226.786 144.93 229.838C142.132 232.89 138.74 235.264 134.756 236.96C130.856 238.656 126.532 239.503 121.784 239.503C117.036 239.503 112.712 238.656 108.812 236.96C104.912 235.264 101.563 232.89 98.7652 229.838C95.9673 226.786 93.763 223.098 92.1521 218.774C90.626 214.45 89.8629 209.66 89.8629 204.403C89.8629 199.146 90.626 194.399 92.1521 190.159C93.763 185.836 95.9673 182.147 98.7652 179.095C101.648 176.043 105.039 173.712 108.939 172.101C112.839 170.405 117.121 169.557 121.784 169.557C126.447 169.557 130.728 170.405 134.629 172.101C138.613 173.712 142.005 176.043 144.803 179.095C147.6 182.147 149.762 185.836 151.288 190.159C152.899 194.399 153.705 199.146 153.705 204.403ZM137.935 204.403C137.935 197.79 136.494 192.576 133.611 188.761C130.813 184.861 126.871 182.91 121.784 182.91C116.697 182.91 112.712 184.861 109.829 188.761C107.032 192.576 105.633 197.79 105.633 204.403C105.633 211.101 107.032 216.4 109.829 220.3C112.712 224.2 116.697 226.15 121.784 226.15C126.871 226.15 130.813 224.2 133.611 220.3C136.494 216.4 137.935 211.101 137.935 204.403ZM186.218 226.659C190.287 226.659 193.255 226.192 195.12 225.26C196.985 224.242 197.918 222.547 197.918 220.173C197.918 217.968 196.901 216.146 194.866 214.704C192.916 213.263 189.652 211.694 185.073 209.999C182.275 208.981 179.69 207.922 177.316 206.819C175.026 205.632 173.034 204.276 171.338 202.75C169.643 201.224 168.286 199.401 167.269 197.281C166.336 195.077 165.87 192.406 165.87 189.269C165.87 183.165 168.117 178.375 172.61 174.898C177.104 171.338 183.208 169.557 190.923 169.557C194.823 169.557 198.554 169.939 202.115 170.702C205.676 171.38 208.346 172.058 210.127 172.736L207.329 185.2C205.633 184.437 203.471 183.758 200.843 183.165C198.215 182.487 195.162 182.147 191.686 182.147C188.549 182.147 186.006 182.699 184.056 183.801C182.106 184.818 181.131 186.429 181.131 188.633C181.131 189.736 181.3 190.711 181.64 191.558C182.063 192.406 182.742 193.212 183.674 193.975C184.607 194.653 185.836 195.374 187.362 196.137C188.888 196.815 190.754 197.536 192.958 198.299C196.604 199.655 199.698 201.012 202.242 202.368C204.785 203.64 206.863 205.124 208.473 206.819C210.169 208.43 211.398 210.296 212.162 212.415C212.925 214.535 213.306 217.078 213.306 220.046C213.306 226.404 210.932 231.237 206.184 234.544C201.521 237.765 194.823 239.376 186.091 239.376C180.241 239.376 175.535 238.867 171.974 237.85C168.413 236.917 165.912 236.154 164.471 235.561L167.142 222.716C169.431 223.649 172.144 224.539 175.281 225.387C178.503 226.235 182.148 226.659 186.218 226.659ZM226.918 153.66L242.306 151.117V171.21H265.96V184.055H242.306V211.143C242.306 216.485 243.154 220.3 244.849 222.589C246.545 224.878 249.428 226.023 253.497 226.023C256.295 226.023 258.754 225.726 260.873 225.133C263.078 224.539 264.816 223.988 266.088 223.479L268.631 235.688C266.851 236.451 264.519 237.214 261.637 237.977C258.754 238.825 255.363 239.249 251.463 239.249C246.715 239.249 242.73 238.613 239.508 237.341C236.371 236.07 233.87 234.247 232.005 231.873C230.14 229.414 228.825 226.489 228.062 223.098C227.299 219.622 226.918 215.679 226.918 211.271V153.66ZM304.236 226.913C308.984 226.913 312.587 226.659 315.046 226.15V209.109C314.198 208.854 312.969 208.6 311.358 208.345C309.747 208.091 307.967 207.964 306.017 207.964C304.321 207.964 302.583 208.091 300.802 208.345C299.107 208.6 297.538 209.066 296.097 209.744C294.74 210.423 293.638 211.398 292.79 212.669C291.943 213.856 291.519 215.382 291.519 217.248C291.519 220.893 292.663 223.437 294.952 224.878C297.242 226.235 300.336 226.913 304.236 226.913ZM302.964 169.557C308.051 169.557 312.333 170.193 315.809 171.465C319.285 172.736 322.041 174.517 324.075 176.806C326.195 179.095 327.679 181.893 328.527 185.2C329.459 188.421 329.926 191.982 329.926 195.882V236.197C327.552 236.706 323.948 237.299 319.116 237.977C314.368 238.74 308.984 239.122 302.964 239.122C298.98 239.122 295.334 238.74 292.027 237.977C288.721 237.214 285.881 235.985 283.507 234.289C281.218 232.594 279.395 230.389 278.038 227.676C276.766 224.963 276.131 221.614 276.131 217.629C276.131 213.814 276.851 210.592 278.292 207.964C279.819 205.336 281.853 203.216 284.397 201.605C286.94 199.91 289.865 198.723 293.172 198.044C296.563 197.281 300.082 196.9 303.727 196.9C305.423 196.9 307.204 197.027 309.069 197.281C310.934 197.451 312.926 197.79 315.046 198.299V195.755C315.046 193.975 314.834 192.279 314.41 190.668C313.986 189.057 313.223 187.658 312.121 186.471C311.104 185.2 309.705 184.225 307.924 183.546C306.229 182.868 304.067 182.529 301.438 182.529C297.877 182.529 294.613 182.783 291.646 183.292C288.678 183.801 286.262 184.394 284.397 185.072L282.489 172.609C284.439 171.931 287.28 171.253 291.01 170.575C294.74 169.896 298.725 169.557 302.964 169.557ZM348.77 173.372C351.738 172.525 355.595 171.719 360.343 170.956C365.091 170.193 370.348 169.811 376.113 169.811C381.539 169.811 386.075 170.575 389.721 172.101C393.366 173.542 396.249 175.619 398.368 178.332C400.573 180.96 402.099 184.182 402.947 187.997C403.879 191.728 404.346 195.84 404.346 200.333V237.723H388.958V202.75C388.958 199.189 388.703 196.179 388.194 193.72C387.771 191.177 387.008 189.142 385.905 187.616C384.888 186.005 383.447 184.861 381.581 184.182C379.801 183.419 377.597 183.038 374.968 183.038C373.018 183.038 370.983 183.165 368.864 183.419C366.744 183.674 365.176 183.885 364.158 184.055V237.723H348.77V173.372ZM419.475 204.785C419.475 198.935 420.322 193.805 422.018 189.396C423.799 184.988 426.13 181.342 429.013 178.459C431.895 175.492 435.202 173.288 438.932 171.846C442.663 170.32 446.478 169.557 450.378 169.557C459.535 169.557 466.656 172.397 471.743 178.078C476.915 183.758 479.501 192.237 479.501 203.513C479.501 204.361 479.459 205.336 479.374 206.438C479.374 207.455 479.332 208.388 479.247 209.236H435.371C435.795 214.577 437.661 218.731 440.967 221.699C444.358 224.581 449.234 226.023 455.592 226.023C459.323 226.023 462.714 225.684 465.766 225.005C468.903 224.327 471.362 223.606 473.142 222.843L475.177 235.434C474.329 235.858 473.142 236.324 471.616 236.833C470.175 237.257 468.479 237.638 466.529 237.977C464.664 238.401 462.629 238.74 460.425 238.995C458.221 239.249 455.974 239.376 453.685 239.376C447.835 239.376 442.748 238.528 438.424 236.833C434.1 235.052 430.539 232.636 427.741 229.584C424.943 226.447 422.866 222.801 421.509 218.647C420.153 214.407 419.475 209.787 419.475 204.785ZM464.113 197.917C464.113 195.798 463.816 193.805 463.223 191.94C462.629 189.99 461.739 188.337 460.552 186.98C459.45 185.539 458.051 184.437 456.355 183.674C454.744 182.826 452.794 182.402 450.505 182.402C448.131 182.402 446.054 182.868 444.274 183.801C442.493 184.649 440.967 185.793 439.695 187.234C438.508 188.676 437.576 190.329 436.898 192.194C436.219 194.059 435.753 195.967 435.499 197.917H464.113ZM512.476 226.659C516.546 226.659 519.513 226.192 521.378 225.26C523.244 224.242 524.176 222.547 524.176 220.173C524.176 217.968 523.159 216.146 521.124 214.704C519.174 213.263 515.91 211.694 511.332 209.999C508.534 208.981 505.948 207.922 503.574 206.819C501.285 205.632 499.292 204.276 497.597 202.75C495.901 201.224 494.545 199.401 493.527 197.281C492.595 195.077 492.128 192.406 492.128 189.269C492.128 183.165 494.375 178.375 498.869 174.898C503.362 171.338 509.466 169.557 517.182 169.557C521.082 169.557 524.812 169.939 528.373 170.702C531.934 171.38 534.605 172.058 536.385 172.736L533.587 185.2C531.892 184.437 529.73 183.758 527.101 183.165C524.473 182.487 521.421 182.147 517.945 182.147C514.808 182.147 512.264 182.699 510.314 183.801C508.364 184.818 507.389 186.429 507.389 188.633C507.389 189.736 507.559 190.711 507.898 191.558C508.322 192.406 509 193.212 509.933 193.975C510.865 194.653 512.095 195.374 513.621 196.137C515.147 196.815 517.012 197.536 519.216 198.299C522.862 199.655 525.957 201.012 528.5 202.368C531.044 203.64 533.121 205.124 534.732 206.819C536.428 208.43 537.657 210.296 538.42 212.415C539.183 214.535 539.564 217.078 539.564 220.046C539.564 226.404 537.191 231.237 532.443 234.544C527.78 237.765 521.082 239.376 512.349 239.376C506.499 239.376 501.794 238.867 498.233 237.85C494.672 236.917 492.171 236.154 490.729 235.561L493.4 222.716C495.689 223.649 498.402 224.539 501.539 225.387C504.761 226.235 508.407 226.659 512.476 226.659ZM569.455 237.723H554.066V171.21H569.455V237.723ZM571.108 151.753C571.108 154.635 570.175 156.924 568.31 158.62C566.445 160.316 564.24 161.164 561.697 161.164C559.069 161.164 556.822 160.316 554.957 158.62C553.091 156.924 552.159 154.635 552.159 151.753C552.159 148.785 553.091 146.454 554.957 144.758C556.822 143.062 559.069 142.215 561.697 142.215C564.24 142.215 566.445 143.062 568.31 144.758C570.175 146.454 571.108 148.785 571.108 151.753ZM585.398 204.785C585.398 198.935 586.246 193.805 587.942 189.396C589.722 184.988 592.054 181.342 594.936 178.459C597.819 175.492 601.125 173.288 604.856 171.846C608.586 170.32 612.402 169.557 616.302 169.557C625.458 169.557 632.58 172.397 637.667 178.078C642.839 183.758 645.425 192.237 645.425 203.513C645.425 204.361 645.382 205.336 645.298 206.438C645.298 207.455 645.255 208.388 645.17 209.236H601.295C601.719 214.577 603.584 218.731 606.891 221.699C610.282 224.581 615.157 226.023 621.516 226.023C625.246 226.023 628.638 225.684 631.69 225.005C634.827 224.327 637.286 223.606 639.066 222.843L641.101 235.434C640.253 235.858 639.066 236.324 637.54 236.833C636.099 237.257 634.403 237.638 632.453 237.977C630.588 238.401 628.553 238.74 626.348 238.995C624.144 239.249 621.897 239.376 619.608 239.376C613.758 239.376 608.671 238.528 604.347 236.833C600.023 235.052 596.462 232.636 593.665 229.584C590.867 226.447 588.789 222.801 587.433 218.647C586.076 214.407 585.398 209.787 585.398 204.785ZM630.037 197.917C630.037 195.798 629.74 193.805 629.146 191.94C628.553 189.99 627.663 188.337 626.476 186.98C625.373 185.539 623.975 184.437 622.279 183.674C620.668 182.826 618.718 182.402 616.429 182.402C614.055 182.402 611.978 182.868 610.197 183.801C608.417 184.649 606.891 185.793 605.619 187.234C604.432 188.676 603.499 190.329 602.821 192.194C602.143 194.059 601.677 195.967 601.422 197.917H630.037Z" fill="#042342"/>
    <path d="M771.494 203.501C771.494 196.634 769.926 191.293 766.789 187.477C763.737 183.662 758.777 181.754 751.91 181.754C750.468 181.754 748.942 181.839 747.331 182.009C745.805 182.094 744.279 182.348 742.753 182.772V220.797C744.109 221.73 745.89 222.62 748.094 223.468C750.383 224.231 752.8 224.612 755.343 224.612C760.939 224.612 765.009 222.705 767.552 218.89C770.18 215.074 771.494 209.945 771.494 203.501ZM787.264 203.247C787.264 208.334 786.586 212.997 785.229 217.236C783.958 221.475 782.092 225.121 779.634 228.173C777.175 231.226 774.08 233.599 770.35 235.295C766.704 236.991 762.55 237.839 757.887 237.839C754.75 237.839 751.867 237.457 749.239 236.694C746.611 235.931 744.449 235.083 742.753 234.151V259.967H727.365V172.089C730.502 171.241 734.359 170.436 738.938 169.673C743.516 168.91 748.349 168.528 753.436 168.528C758.692 168.528 763.398 169.334 767.552 170.945C771.706 172.555 775.225 174.887 778.108 177.939C781.075 180.907 783.322 184.552 784.848 188.876C786.459 193.115 787.264 197.906 787.264 203.247ZM826.269 237.711C821.691 237.627 817.876 237.118 814.823 236.185C811.856 235.253 809.482 233.939 807.702 232.243C805.921 230.462 804.649 228.3 803.886 225.757C803.208 223.129 802.869 220.161 802.869 216.855V140.295L818.257 137.752V213.93C818.257 215.795 818.384 217.363 818.639 218.635C818.978 219.907 819.529 221.009 820.292 221.942C821.055 222.79 822.072 223.468 823.344 223.977C824.701 224.4 826.396 224.74 828.431 224.994L826.269 237.711Z" fill="#042342"/>
    <circle cx="686.135" cy="217.129" r="8.34036" fill="#EE427B"/>
    <circle cx="686.136" cy="217.129" r="17.9639" stroke="#042342" stroke-width="6.41566"/>
    <path d="M650.414 104.546C648.22 99.6834 647 94.292 647 88.6171C647 67.1131 664.522 49.6807 686.136 49.6807C707.75 49.6807 725.271 67.1131 725.271 88.6171C725.271 110.121 707.75 127.554 686.136 127.554V162.596" stroke="#EEA305" stroke-width="8.98193" stroke-linecap="round" stroke-linejoin="round"/>
    <path d="M686.191 98.5971C684.419 98.5971 682.983 100.033 682.983 101.805C682.983 103.577 684.419 105.013 686.191 105.013V98.5971ZM673.645 89.1673L676.751 89.9669L673.645 89.1673ZM632.244 89.1673C632.244 87.3957 630.808 85.9595 629.036 85.9595C627.264 85.9595 625.828 87.3957 625.828 89.1673H632.244ZM625.828 89.8694C625.828 91.641 627.264 93.0772 629.036 93.0772C630.808 93.0772 632.244 91.641 632.244 89.8694H625.828ZM704.313 143.228L703.364 140.164C702.021 140.58 701.105 141.823 701.105 143.228H704.313ZM671.277 128.484C671.277 126.713 669.84 125.277 668.069 125.277C666.297 125.277 664.861 126.713 664.861 128.484H671.277ZM695.529 89.1673C695.529 94.3973 691.326 98.5971 686.191 98.5971V105.013C694.914 105.013 701.945 97.8965 701.945 89.1673H695.529ZM676.751 89.9669C677.584 86.7321 678.811 84.1144 680.386 82.3563C681.878 80.6912 683.719 79.7375 686.191 79.7375V73.3218C681.734 73.3218 678.205 75.1765 675.608 78.075C673.094 80.8805 671.513 84.5816 670.538 88.3677L676.751 89.9669ZM686.191 79.7375C691.326 79.7375 695.529 83.9374 695.529 89.1673H701.945C701.945 80.4381 694.914 73.3218 686.191 73.3218V79.7375ZM670.538 88.3677C668.14 97.6848 665.264 104.347 661.754 108.638C658.374 112.769 654.384 114.745 649.249 114.745V121.161C656.433 121.161 662.202 118.222 666.72 112.7C671.108 107.337 674.27 99.6063 676.751 89.9669L670.538 88.3677ZM649.249 114.745C644.356 114.745 640.252 112.33 637.238 107.955C634.178 103.511 632.296 97.0704 632.245 89.4835L625.83 89.5266C625.887 98.0602 627.995 105.844 631.955 111.594C635.962 117.412 641.91 121.161 649.249 121.161V114.745ZM632.245 89.4835C632.244 89.3783 632.244 89.2729 632.244 89.1673H625.828C625.828 89.2873 625.829 89.407 625.83 89.5266L632.245 89.4835ZM632.244 89.8694C632.244 89.7545 632.244 89.6397 632.245 89.525L625.829 89.4851C625.829 89.6131 625.828 89.7412 625.828 89.8694H632.244ZM632.245 89.525C632.429 60.0255 656.22 36.2078 685.494 36.2078V29.7922C652.647 29.7922 626.035 56.5038 625.829 89.4851L632.245 89.525ZM685.494 36.2078C714.881 36.2078 738.744 60.2109 738.744 89.8694H745.16C745.16 56.7117 718.468 29.7922 685.494 29.7922V36.2078ZM738.744 89.8694C738.744 115.664 720.267 134.925 703.364 140.164L705.263 146.292C724.604 140.298 745.16 118.726 745.16 89.8694H738.744ZM701.105 163.589C701.105 171.921 694.406 178.636 686.191 178.636V185.051C697.993 185.051 707.521 175.42 707.521 163.589H701.105ZM686.191 178.636C677.976 178.636 671.277 171.921 671.277 163.589H664.861C664.861 175.42 674.389 185.051 686.191 185.051V178.636ZM671.277 163.589V128.484H664.861V163.589H671.277ZM707.521 163.589V143.228H701.105V163.589H707.521Z" fill="#EE427B"/>
</svg>
