<svg width="832" height="264" fill="none" xmlns="http://www.w3.org/2000/svg"><path d="M29.9 204.3c0 6.8 1.6 12.1 4.8 16 3.2 3.8 7.7 5.7 13.4 5.7a64 64 0 0 0 10.5-1V187a22 22 0 0 0-5.5-2.6c-2.2-.8-4.5-1.3-7-1.3-5.7 0-9.8 2-12.4 5.8-2.6 3.8-3.8 9-3.8 15.5ZM74 235.7a90.7 90.7 0 0 1-26 3.7c-5.3 0-10-.8-14.2-2.4a30.5 30.5 0 0 1-10.7-7c-2.8-3-5.1-6.6-6.7-10.8a49.5 49.5 0 0 1-.4-28.7 32 32 0 0 1 5.9-11.2c2.5-3 5.6-5.3 9.2-7 3.7-1.6 7.9-2.5 12.6-2.5 3.3 0 6.1.4 8.6 1.2a38 38 0 0 1 6.3 2.5v-32L74 139v96.7Zm79.7-31.3c0 5.3-.8 10-2.3 14.4a29 29 0 0 1-16.7 18.2 32.2 32.2 0 0 1-13 2.5c-4.7 0-9-.8-12.9-2.5-3.9-1.7-7.2-4.1-10-7.2-2.8-3-5-6.7-6.6-11a43 43 0 0 1-2.3-14.4c0-5.3.7-10 2.3-14.2a29.1 29.1 0 0 1 16.8-18c3.8-1.8 8.1-2.6 12.8-2.6a31.9 31.9 0 0 1 23 9.5c2.8 3 5 6.7 6.5 11 1.6 4.3 2.4 9 2.4 14.3Zm-15.8 0c0-6.6-1.4-11.8-4.3-15.6a13.7 13.7 0 0 0-11.8-5.9c-5.1 0-9 2-12 5.9a26 26 0 0 0-4.2 15.6c0 6.7 1.4 12 4.2 15.9a14 14 0 0 0 12 5.8c5 0 9-1.9 11.8-5.8 2.9-3.9 4.3-9.2 4.3-15.9Zm48.3 22.3c4 0 7-.5 9-1.4 1.8-1 2.7-2.8 2.7-5.1 0-2.2-1-4-3-5.5-2-1.4-5.2-3-9.8-4.7-2.8-1-5.4-2-7.8-3.2a28.5 28.5 0 0 1-6-4c-1.7-1.6-3-3.4-4-5.5-1-2.2-1.4-4.9-1.4-8 0-6.1 2.2-11 6.7-14.4a28.7 28.7 0 0 1 18.3-5.3c4 0 7.7.3 11.2 1.1 3.6.7 6.2 1.4 8 2l-2.8 12.5c-1.7-.8-3.8-1.4-6.5-2-2.6-.7-5.6-1-9.1-1-3.2 0-5.7.5-7.6 1.6a5 5 0 0 0-3 4.8c0 1.1.2 2.1.5 3 .5.8 1.1 1.6 2 2.4 1 .7 2.2 1.4 3.8 2.1 1.5.7 3.4 1.4 5.6 2.2a77 77 0 0 1 9.2 4c2.6 1.3 4.7 2.8 6.3 4.5 1.7 1.6 2.9 3.5 3.7 5.6.7 2.1 1.1 4.7 1.1 7.6 0 6.4-2.4 11.2-7.1 14.5a35.2 35.2 0 0 1-20.1 4.9 53 53 0 0 1-21.6-3.8l2.6-12.9c2.3 1 5 1.8 8.2 2.7a43 43 0 0 0 11 1.3Zm40.7-73 15.4-2.6v20.1H266v12.9h-23.7v27c0 5.4.9 9.2 2.5 11.5 1.7 2.3 4.6 3.4 8.7 3.4 2.8 0 5.3-.3 7.4-.9 2.2-.6 4-1.1 5.2-1.6l2.5 12.2a52.1 52.1 0 0 1-17.1 3.5c-4.8 0-8.8-.6-12-1.9-3.1-1.2-5.6-3-7.5-5.4a22.5 22.5 0 0 1-4-8.8c-.7-3.5-1-7.4-1-11.8v-57.6Zm77.3 73.2c4.8 0 8.4-.2 10.8-.8v-17a29.9 29.9 0 0 0-9-1.1 37 37 0 0 0-5.2.3c-1.7.3-3.3.8-4.7 1.4a8.5 8.5 0 0 0-3.3 3 7.7 7.7 0 0 0-1.3 4.5c0 3.7 1.2 6.2 3.5 7.7 2.2 1.3 5.3 2 9.2 2Zm-1.2-57.3c5 0 9.3.6 12.8 1.9a19 19 0 0 1 12.7 13.7c1 3.2 1.4 6.8 1.4 10.7v40.3a167.2 167.2 0 0 1-27 3c-4 0-7.6-.5-10.9-1.2-3.3-.8-6.1-2-8.5-3.7a18.2 18.2 0 0 1-5.5-6.6c-1.2-2.7-1.9-6-1.9-10 0-3.9.8-7.1 2.2-9.7 1.5-2.7 3.6-4.8 6.1-6.4 2.5-1.7 5.5-2.9 8.8-3.6a48 48 0 0 1 21.8.3v-2.5a20 20 0 0 0-.6-5.1c-.4-1.6-1.2-3-2.3-4.2a9.6 9.6 0 0 0-4.2-3c-1.7-.6-3.8-1-6.5-1a58 58 0 0 0-17 2.6l-2-12.5a66.7 66.7 0 0 1 20.5-3Zm45.8 3.8a103.3 103.3 0 0 1 27.3-3.6c5.4 0 10 .8 13.6 2.3a20 20 0 0 1 8.7 6.2c2.2 2.7 3.7 5.9 4.5 9.7 1 3.7 1.4 7.8 1.4 12.3v37.4H389v-35c0-3.5-.3-6.5-.8-9-.4-2.5-1.2-4.6-2.3-6a8.3 8.3 0 0 0-4.3-3.5c-1.8-.8-4-1.2-6.6-1.2a51.3 51.3 0 0 0-10.8 1v53.7h-15.4v-64.3Zm70.7 31.4c0-5.9.8-11 2.5-15.4 1.8-4.4 4.1-8 7-11a30 30 0 0 1 21.4-8.9c9.1 0 16.3 2.9 21.3 8.6 5.2 5.7 7.8 14.1 7.8 25.4l-.1 3c0 1 0 1.9-.2 2.7h-43.8c.4 5.4 2.3 9.5 5.6 12.5a22 22 0 0 0 14.6 4.3 47 47 0 0 0 17.5-3.2l2 12.6a28.5 28.5 0 0 1-8.6 2.6 57.3 57.3 0 0 1-12.8 1.4c-5.9 0-11-.9-15.3-2.6a29.4 29.4 0 0 1-10.7-7.2 30.4 30.4 0 0 1-6.2-11c-1.3-4.2-2-8.8-2-13.8Zm44.6-6.9c0-2.1-.3-4-.9-6-.6-2-1.5-3.6-2.6-5a10.7 10.7 0 0 0-4.2-3.2c-1.7-.9-3.6-1.3-5.9-1.3a14.1 14.1 0 0 0-13.6 9.8c-.7 1.9-1.1 3.8-1.4 5.7h28.6Zm48.4 28.8c4 0 7-.5 8.9-1.4 1.8-1 2.8-2.8 2.8-5.1 0-2.2-1-4-3-5.5-2-1.4-5.3-3-9.9-4.7-2.8-1-5.4-2-7.7-3.2a28.4 28.4 0 0 1-6-4c-1.7-1.6-3-3.4-4-5.5-1-2.2-1.5-4.9-1.5-8 0-6.1 2.3-11 6.8-14.4a28.7 28.7 0 0 1 18.3-5.3c3.9 0 7.6.3 11.2 1.1 3.5.7 6.2 1.4 8 2l-2.8 12.5c-1.7-.8-3.9-1.4-6.5-2-2.6-.7-5.7-1-9.2-1-3 0-5.6.5-7.6 1.6a5 5 0 0 0-3 4.8c0 1.1.3 2.1.6 3 .4.8 1.1 1.6 2 2.4 1 .7 2.2 1.4 3.7 2.1 1.5.7 3.4 1.4 5.6 2.2a77 77 0 0 1 9.3 4c2.5 1.3 4.6 2.8 6.2 4.5 1.7 1.6 3 3.5 3.7 5.6.8 2.1 1.2 4.7 1.2 7.6 0 6.4-2.4 11.2-7.2 14.5a35.2 35.2 0 0 1-20 4.9 53 53 0 0 1-21.7-3.8l2.7-12.9a43 43 0 0 0 19 4Zm57 11H554v-66.5h15.4v66.5Zm1.6-86c0 3-1 5.2-2.8 7a9.5 9.5 0 0 1-6.6 2.5c-2.6 0-4.9-.9-6.7-2.6a8.8 8.8 0 0 1-2.8-6.8c0-3 .9-5.3 2.8-7a9.7 9.7 0 0 1 6.7-2.6c2.5 0 4.7.9 6.6 2.6a9 9 0 0 1 2.8 7Zm14.3 53c0-5.8.8-10.9 2.5-15.3 1.8-4.4 4.2-8 7-11a30 30 0 0 1 21.4-8.9c9.2 0 16.3 2.9 21.4 8.6 5.1 5.7 7.7 14.1 7.7 25.4l-.1 3-.1 2.7h-44c.5 5.4 2.4 9.5 5.7 12.5a22 22 0 0 0 14.6 4.3 47 47 0 0 0 17.6-3.2l2 12.6a28.5 28.5 0 0 1-8.6 2.6 57.3 57.3 0 0 1-12.9 1.4c-5.8 0-11-.9-15.3-2.6a29.4 29.4 0 0 1-10.6-7.2 30.4 30.4 0 0 1-6.3-11c-1.3-4.2-2-8.8-2-13.8ZM630 198c0-2.1-.3-4-.9-6-.5-2-1.4-3.6-2.6-5a10.7 10.7 0 0 0-4.2-3.2c-1.6-.9-3.6-1.3-5.9-1.3a14.2 14.2 0 0 0-13.6 9.8 27 27 0 0 0-1.4 5.7H630ZM771.5 203.5c0-6.9-1.6-12.2-4.7-16-3-3.8-8-5.7-14.9-5.7a43.7 43.7 0 0 0-9.1 1v38a22.8 22.8 0 0 0 12.6 3.8c5.5 0 9.6-1.9 12.2-5.7 2.6-3.8 3.9-9 3.9-15.4Zm15.8-.3c0 5.1-.7 9.8-2 14a31.8 31.8 0 0 1-5.7 11 25 25 0 0 1-9.3 7 29.2 29.2 0 0 1-12.4 2.6 31 31 0 0 1-15.1-3.6V260h-15.4v-88c3.1-.8 7-1.6 11.5-2.3 4.6-.8 9.4-1.2 14.5-1.2 5.3 0 10 .8 14.2 2.4 4.1 1.7 7.6 4 10.5 7 3 3 5.2 6.7 6.7 11 1.7 4.2 2.5 9 2.5 14.3Zm39 34.5c-4.6 0-8.4-.6-11.5-1.5a18 18 0 0 1-7.1-4c-1.8-1.7-3-3.9-3.8-6.4-.7-2.7-1-5.6-1-9v-76.5l15.4-2.5v76.1c0 1.9 0 3.5.3 4.7.4 1.3 1 2.4 1.7 3.3a8 8 0 0 0 3 2c1.4.5 3.1.8 5.1 1l-2.1 12.8Z" fill="#042342"/><circle cx="686.1" cy="217.1" r="8.3" fill="#EE427B"/><circle cx="686.1" cy="217.1" r="18" stroke="#042342" stroke-width="6.4"/><path d="M650.4 104.5a39 39 0 0 1 35.7-54.9 39 39 0 0 1 39.2 39 39 39 0 0 1-39.2 39v35" stroke="#EEA305" stroke-width="9" stroke-linecap="round" stroke-linejoin="round"/><path d="M686.2 98.6a3.2 3.2 0 1 0 0 6.4v-6.4Zm-12.6-9.4 3.2.8-3.2-.8Zm-41.4 0a3.2 3.2 0 1 0-6.4 0h6.4Zm-6.4.7a3.2 3.2 0 1 0 6.4 0h-6.4Zm78.5 53.3-1-3a3.2 3.2 0 0 0-2.2 3h3.2Zm-33-14.7a3.2 3.2 0 0 0-6.4 0h6.4Zm24.2-39.3c0 5.2-4.2 9.4-9.3 9.4v6.4c8.7 0 15.7-7.1 15.7-15.8h-6.4Zm-18.7.8c.8-3.3 2-5.9 3.6-7.6a7.4 7.4 0 0 1 5.8-2.7v-6.4c-4.5 0-8 1.9-10.6 4.8-2.5 2.8-4 6.5-5 10.3l6.2 1.6Zm9.4-10.3c5.1 0 9.3 4.2 9.3 9.5h6.4c0-8.8-7-15.9-15.7-15.9v6.4Zm-15.7 8.7c-2.4 9.3-5.2 16-8.7 20.2a15.2 15.2 0 0 1-12.6 6.1v6.5c7.2 0 13-3 17.5-8.5 4.4-5.4 7.6-13 10-22.7l-6.2-1.6Zm-21.3 26.3c-4.8 0-9-2.4-12-6.7-3-4.5-4.9-11-5-18.5h-6.4c0 8.6 2.2 16.3 6.2 22 4 6 10 9.7 17.2 9.7v-6.5Zm-17-25.2v-.3h-6.4v.3h6.4Zm0 .4v-.4h-6.4v.4h6.4Zm0-.4c.2-29.5 24-53.3 53.3-53.3v-6.4a59.9 59.9 0 0 0-59.7 59.7h6.4Zm53.3-53.3c29.4 0 53.2 24 53.2 53.7h6.5c0-33.2-26.7-60.1-59.7-60.1v6.4ZM738.7 90c0 25.8-18.4 45-35.3 50.3l1.9 6A60 60 0 0 0 745.2 90h-6.5Zm-37.6 73.7a15 15 0 0 1-15 15v6.5c11.9 0 21.4-9.7 21.4-21.5h-6.4Zm-15 15a15 15 0 0 1-14.8-15h-6.4c0 11.8 9.5 21.5 21.3 21.5v-6.5Zm-14.8-15v-35.1h-6.4v35h6.4Zm36.2 0v-20.4h-6.4v20.4h6.4Z" fill="#EE427B"/></svg>